<?xml version="1.0" encoding="utf-8"?>
<!-- Generator: Adobe Illustrator 17.0.0, SVG Export Plug-In . SVG Version: 6.00 Build 0)  -->
<!DOCTYPE svg PUBLIC "-//W3C//DTD SVG 1.1//EN" "http://www.w3.org/Graphics/SVG/1.1/DTD/svg11.dtd">
<svg version="1.1" id="Layer_1" xmlns="http://www.w3.org/2000/svg" xmlns:xlink="http://www.w3.org/1999/xlink" x="0px" y="0px"
	 width="281.714px" height="325.143px" viewBox="0 0 281.714 325.143" enable-background="new 0 0 281.714 325.143"
	 xml:space="preserve">
<rect x="8.571" y="4.571" fill="none" width="46.857" height="52"/>
<text transform="matrix(1 0 0 1 8.8701 48.6927)" font-family="SFProText" font-size="60">Q</text>
<rect x="64.643" y="4.571" fill="none" width="46.857" height="52"/>
<text transform="matrix(1 0 0 1 65.7472 48.6927)" font-family="SFProText" font-size="60">U</text>
<rect x="120.143" y="4.071" fill="none" width="46.857" height="52"/>
<text transform="matrix(1 0 0 1 135.5441 48.1927)" font-family="SFProText" font-size="60">I</text>
<rect x="175.786" y="4.571" fill="none" width="46.857" height="52"/>
<text transform="matrix(1 0 0 1 177.7397 48.6927)" font-family="SFProText" font-size="60">C</text>
<rect x="175.786" y="70.857" fill="none" width="46.857" height="52"/>
<text transform="matrix(1 0 0 1 176.0844 114.9784)" font-family="SFProText" font-size="60">O</text>
<rect x="175.786" y="140.571" fill="none" width="46.857" height="52"/>
<text transform="matrix(1 0 0 1 191.1874 184.6927)" font-family="SFProText" font-size="60">I</text>
<rect x="175.786" y="208" fill="none" width="46.857" height="52"/>
<text transform="matrix(1 0 0 1 176.9487 252.1212)" font-family="SFProText" font-size="60">N</text>
<rect x="175.786" y="277.714" fill="none" width="46.857" height="52"/>
<text transform="matrix(1 0 0 1 180.0986 321.8355)" font-family="SFProText" font-size="60">S</text>
<rect x="231.286" y="4.071" fill="none" width="46.857" height="52"/>
<text transform="matrix(1 0 0 1 234.9536 48.1927)" font-family="SFProText" font-size="60">K</text>
<line fill="none" stroke="#000000" stroke-width="8" stroke-miterlimit="10" x1="3.857" y1="70.286" x2="162.857" y2="70.286"/>
<line fill="none" stroke="#000000" stroke-width="8" stroke-miterlimit="10" x1="230.857" y1="70.286" x2="277.857" y2="70.286"/>
</svg>
